0.16m3min_grf.mot
version=1
nRows=22
nColumns 19
inDegrees=yes
endheader
time	1_ground_force_vx	1_ground_force_vy	1_ground_force_vz	1_ground_force_px	1_ground_force_py	1_ground_force_pz	1_ground_torque_x	1_ground_torque_y	1_ground_torque_z	2_ground_force_vx	2_ground_force_vy	2_ground_force_vz	2_ground_force_px	2_ground_force_py	2_ground_force_pz	2_ground_torque_x	2_ground_torque_y	2_ground_torque_z
            0.005000	           -0.921377	         1229.520528	         -146.237854	           -0.271483	            0.006257	           -0.414926	           -0.000797	            1.063064	           -0.126440	           11.436037	          936.869813	          143.090060	           -0.296367	            0.005418	           -0.698821	            0.043435	            3.558291	            0.543465
            0.005500	           -0.599769	         1241.233096	         -145.041998	           -0.271829	            0.006258	           -0.415145	           -0.000431	            0.891516	           -0.104176	           13.791459	          946.448934	          144.577974	           -0.296402	            0.005417	           -0.698666	            0.037705	            2.587544	            0.395269
            0.006000	            0.408312	         1253.127938	         -144.305658	           -0.272098	            0.006258	           -0.415203	            0.000064	            0.197714	           -0.022768	           19.233488	          957.692652	          147.196762	           -0.296430	            0.005418	           -0.698907	            0.030594	            1.523373	            0.234141
            0.006500	            2.102070	         1265.206428	         -144.349784	           -0.272543	            0.006258	           -0.415190	           -0.000901	           -0.542060	            0.061845	           24.913731	          967.832417	          149.764602	           -0.296595	            0.005417	           -0.698806	            0.029116	            1.131062	            0.175023
            0.007000	            4.847095	         1276.930035	         -145.682053	           -0.272783	            0.006259	           -0.415294	           -0.001971	           -0.519170	            0.059231	           27.922638	          978.148461	          151.818003	           -0.296981	            0.005416	           -0.698867	            0.043611	            1.527707	            0.237115
            0.007500	            8.230586	         1288.839886	         -148.344960	           -0.272931	            0.006259	           -0.415443	            0.003060	            0.479206	           -0.055156	           26.993691	          989.006627	          152.795710	           -0.296961	            0.005415	           -0.698729	            0.063391	            2.322538	            0.358818
            0.008000	           11.432108	         1299.305609	         -150.555043	           -0.273069	            0.006260	           -0.415703	            0.015526	            1.764550	           -0.204465	           23.583485	          999.305142	          153.303206	           -0.297122	            0.005414	           -0.698594	            0.066851	            2.832699	            0.434564
            0.008500	           12.711685	         1311.386773	         -151.240135	           -0.273349	            0.006260	           -0.415757	            0.023495	            2.423831	           -0.279537	           20.412180	         1008.315333	          153.806033	           -0.297045	            0.005414	           -0.698547	            0.054996	            2.716687	            0.414397
            0.009000	           13.123919	         1324.542616	         -150.359304	           -0.273586	            0.006260	           -0.415763	            0.021874	            2.207694	           -0.250613	           20.753412	         1017.705611	          154.590233	           -0.297167	            0.005413	           -0.698369	            0.042316	            2.075069	            0.315205
            0.009500	           13.217565	         1336.252733	         -148.658492	           -0.273942	            0.006261	           -0.415908	            0.013384	            1.353043	           -0.150526	           24.652119	         1028.027836	          155.845470	           -0.297067	            0.005413	           -0.698259	            0.031766	            1.324688	            0.200818
            0.010000	           14.135668	         1348.144608	         -147.234066	           -0.274285	            0.006262	           -0.416105	            0.007100	            0.677144	           -0.073953	           30.144803	         1038.168142	          158.037965	           -0.297355	            0.005412	           -0.698262	            0.029777	            1.025490	            0.156108
            0.010500	           16.011155	         1361.127048	         -147.870905	           -0.274529	            0.006261	           -0.416049	            0.009681	            0.822991	           -0.089409	           34.180254	         1049.594334	          159.719446	           -0.297475	            0.005412	           -0.698401	            0.037980	            1.166269	            0.177474
            0.011000	           19.122336	         1373.572697	         -149.384431	           -0.274744	            0.006262	           -0.416114	            0.027809	            1.997527	           -0.217243	           34.758582	         1058.247267	          160.923278	           -0.297704	            0.005411	           -0.698217	            0.049987	            1.521893	            0.231428
            0.011500	           21.865572	         1385.119275	         -151.451137	           -0.274789	            0.006262	           -0.416296	            0.052640	            3.334608	           -0.364611	           32.329560	         1069.285896	          161.432984	           -0.297593	            0.005411	           -0.698280	            0.050603	            1.673666	            0.252678
            0.012000	           23.831897	         1397.742714	         -152.456628	           -0.275033	            0.006263	           -0.416483	            0.070227	            4.118793	           -0.449251	           28.972791	         1077.743552	          161.793143	           -0.297594	            0.005410	           -0.697978	            0.039735	            1.478069	            0.221891
            0.012500	           23.969077	         1409.637191	         -151.672259	           -0.275392	            0.006264	           -0.416617	            0.066666	            3.920650	           -0.421849	           27.534042	         1086.946045	          161.779658	           -0.297559	            0.005410	           -0.697774	            0.027722	            1.094359	            0.162883
            0.013000	           23.192468	         1421.526182	         -149.647501	           -0.275684	            0.006264	           -0.416657	            0.048795	            2.990786	           -0.314847	           29.088412	         1097.632156	          161.864026	           -0.297719	            0.005409	           -0.697684	            0.019937	            0.752291	            0.110938
            0.013500	           22.919759	         1433.596034	         -147.760793	           -0.276047	            0.006264	           -0.416803	            0.040011	            2.502614	           -0.257944	           33.649982	         1105.933986	          162.313971	           -0.297948	            0.005407	           -0.697497	            0.019860	            0.652730	            0.095799
            0.014000	           23.332678	         1446.750698	         -146.604849	           -0.276274	            0.006264	           -0.416736	            0.043303	            2.685031	           -0.272085	           38.203008	         1116.628747	          163.007136	           -0.297998	            0.005408	           -0.697618	            0.023305	            0.681165	            0.099437
            0.014500	           25.207856	         1458.291996	         -147.477148	           -0.276489	            0.006265	           -0.416881	            0.067533	            3.906839	           -0.395099	           39.954017	         1124.916912	          164.443775	           -0.298106	            0.005406	           -0.697403	            0.021092	            0.593857	            0.086812
            0.015000	           27.676942	         1471.098507	         -149.079239	           -0.276608	            0.006265	           -0.416940	            0.099294	            5.277731	           -0.534839	           38.559020	         1135.038376	          164.949787	           -0.298080	            0.005406	           -0.697355	            0.010396	            0.306025	            0.044473
            0.015500	           29.551718	         1481.739429	         -150.184708	           -0.276833	            0.006266	           -0.417226	            0.121679	            6.101047	           -0.618384	           34.778482	         1144.047998	          165.030512	           -0.297991	            0.005406	           -0.697207	            0.001723	            0.056682	            0.008176
